<svg width="24" height="24" viewBox="0 0 24 24" fill="none" xmlns="http://www.w3.org/2000/svg">
<g filter="url(#filter0_d_1_2)">
<rect x="4" width="16" height="16" rx="2" fill="#77B255"/>
<path fill-rule="evenodd" clip-rule="evenodd" d="M16.416 3.376C16.5815 3.48634 16.6964 3.65789 16.7354 3.85293C16.7744 4.04796 16.7343 4.2505 16.624 4.416L11.624 11.916C11.5624 12.0082 11.4811 12.0857 11.386 12.1427C11.2909 12.1998 11.1843 12.235 11.074 12.2459C10.9636 12.2568 10.8522 12.2431 10.7477 12.2058C10.6433 12.1684 10.5484 12.1084 10.47 12.03L7.47 9.03C7.33752 8.88783 7.2654 8.69978 7.26883 8.50548C7.27225 8.31118 7.35097 8.12579 7.48838 7.98838C7.62579 7.85097 7.81118 7.77225 8.00548 7.76883C8.19978 7.7654 8.38783 7.83752 8.53 7.97L10.883 10.323L15.376 3.583C15.4865 3.41768 15.6581 3.303 15.8531 3.26418C16.0482 3.22537 16.2506 3.26559 16.416 3.376Z" fill="white"/>
</g>
<defs>
<filter id="filter0_d_1_2" x="0" y="0" width="24" height="24" filterUnits="userSpaceOnUse" color-interpolation-filters="sRGB">
<feFlood flood-opacity="0" result="BackgroundImageFix"/>
<feColorMatrix in="SourceAlpha" type="matrix" values="0 0 0 0 0 0 0 0 0 0 0 0 0 0 0 0 0 0 127 0" result="hardAlpha"/>
<feOffset dy="4"/>
<feGaussianBlur stdDeviation="2"/>
<feComposite in2="hardAlpha" operator="out"/>
<feColorMatrix type="matrix" values="0 0 0 0 0 0 0 0 0 0 0 0 0 0 0 0 0 0 0.25 0"/>
<feBlend mode="normal" in2="BackgroundImageFix" result="effect1_dropShadow_1_2"/>
<feBlend mode="normal" in="SourceGraphic" in2="effect1_dropShadow_1_2" result="shape"/>
</filter>
</defs>
</svg>
